<mxfile host="app.diagrams.net" modified="2021-11-20T04:10:20.945Z" agent="5.0 (Windows NT 10.0; Win64; x64) AppleWebKit/537.36 (KHTML, like Gecko) Chrome/96.0.4664.45 Safari/537.36" etag="w4n2m6I9wF4zi0TDWJOo" version="15.8.2" type="github">
  <diagram id="D3sv9wikPJVAfb8kTO8g" name="Page-1">
    <mxGraphModel dx="723" dy="375" grid="1" gridSize="10" guides="1" tooltips="1" connect="1" arrows="1" fold="1" page="1" pageScale="1" pageWidth="850" pageHeight="1100" math="0" shadow="0">
      <root>
        <mxCell id="0" />
        <mxCell id="1" parent="0" />
        <mxCell id="WEQpLsr9RtUh2IpWofqa-37" style="edgeStyle=orthogonalEdgeStyle;rounded=0;orthogonalLoop=1;jettySize=auto;html=1;entryX=0.057;entryY=0.396;entryDx=0;entryDy=0;entryPerimeter=0;" edge="1" parent="1" source="WEQpLsr9RtUh2IpWofqa-20" target="WEQpLsr9RtUh2IpWofqa-36">
          <mxGeometry relative="1" as="geometry" />
        </mxCell>
        <mxCell id="WEQpLsr9RtUh2IpWofqa-20" value="LOGIN" style="swimlane;fontStyle=1;align=center;verticalAlign=top;childLayout=stackLayout;horizontal=1;startSize=26;horizontalStack=0;resizeParent=1;resizeParentMax=0;resizeLast=0;collapsible=1;marginBottom=0;" vertex="1" parent="1">
          <mxGeometry x="140" y="80" width="160" height="150" as="geometry" />
        </mxCell>
        <mxCell id="WEQpLsr9RtUh2IpWofqa-21" value="+username&#xa;+password" style="text;strokeColor=none;fillColor=none;align=left;verticalAlign=top;spacingLeft=4;spacingRight=4;overflow=hidden;rotatable=0;points=[[0,0.5],[1,0.5]];portConstraint=eastwest;" vertex="1" parent="WEQpLsr9RtUh2IpWofqa-20">
          <mxGeometry y="26" width="160" height="44" as="geometry" />
        </mxCell>
        <mxCell id="WEQpLsr9RtUh2IpWofqa-22" value="" style="line;strokeWidth=1;fillColor=none;align=left;verticalAlign=middle;spacingTop=-1;spacingLeft=3;spacingRight=3;rotatable=0;labelPosition=right;points=[];portConstraint=eastwest;" vertex="1" parent="WEQpLsr9RtUh2IpWofqa-20">
          <mxGeometry y="70" width="160" height="8" as="geometry" />
        </mxCell>
        <mxCell id="WEQpLsr9RtUh2IpWofqa-23" value="+ login()&#xa;+ validation()&#xa;+ get_data()&#xa;+ display()" style="text;strokeColor=none;fillColor=none;align=left;verticalAlign=top;spacingLeft=4;spacingRight=4;overflow=hidden;rotatable=0;points=[[0,0.5],[1,0.5]];portConstraint=eastwest;" vertex="1" parent="WEQpLsr9RtUh2IpWofqa-20">
          <mxGeometry y="78" width="160" height="72" as="geometry" />
        </mxCell>
        <mxCell id="WEQpLsr9RtUh2IpWofqa-25" value="STUDENT DETAILS" style="swimlane;fontStyle=1;align=center;verticalAlign=top;childLayout=stackLayout;horizontal=1;startSize=26;horizontalStack=0;resizeParent=1;resizeParentMax=0;resizeLast=0;collapsible=1;marginBottom=0;" vertex="1" parent="1">
          <mxGeometry x="570" y="80" width="160" height="180" as="geometry" />
        </mxCell>
        <mxCell id="WEQpLsr9RtUh2IpWofqa-26" value="+ Name&#xa;+ Address&#xa;+ Age&#xa;+ course&#xa;+ Department&#xa;+ Phone no" style="text;strokeColor=none;fillColor=none;align=left;verticalAlign=top;spacingLeft=4;spacingRight=4;overflow=hidden;rotatable=0;points=[[0,0.5],[1,0.5]];portConstraint=eastwest;" vertex="1" parent="WEQpLsr9RtUh2IpWofqa-25">
          <mxGeometry y="26" width="160" height="104" as="geometry" />
        </mxCell>
        <mxCell id="WEQpLsr9RtUh2IpWofqa-27" value="" style="line;strokeWidth=1;fillColor=none;align=left;verticalAlign=middle;spacingTop=-1;spacingLeft=3;spacingRight=3;rotatable=0;labelPosition=right;points=[];portConstraint=eastwest;" vertex="1" parent="WEQpLsr9RtUh2IpWofqa-25">
          <mxGeometry y="130" width="160" height="8" as="geometry" />
        </mxCell>
        <mxCell id="WEQpLsr9RtUh2IpWofqa-28" value="+ get_data()&#xa;+ Display()" style="text;strokeColor=none;fillColor=none;align=left;verticalAlign=top;spacingLeft=4;spacingRight=4;overflow=hidden;rotatable=0;points=[[0,0.5],[1,0.5]];portConstraint=eastwest;" vertex="1" parent="WEQpLsr9RtUh2IpWofqa-25">
          <mxGeometry y="138" width="160" height="42" as="geometry" />
        </mxCell>
        <mxCell id="WEQpLsr9RtUh2IpWofqa-29" value="UPDATE DETAILS" style="swimlane;fontStyle=0;childLayout=stackLayout;horizontal=1;startSize=26;fillColor=none;horizontalStack=0;resizeParent=1;resizeParentMax=0;resizeLast=0;collapsible=1;marginBottom=0;" vertex="1" parent="1">
          <mxGeometry x="350" y="340" width="140" height="130" as="geometry" />
        </mxCell>
        <mxCell id="WEQpLsr9RtUh2IpWofqa-30" value="+ Student details&#xa;+ Result details&#xa;&#xa;+ Update_info()&#xa;+ get_details()&#xa;+Display()" style="text;strokeColor=none;fillColor=none;align=left;verticalAlign=top;spacingLeft=4;spacingRight=4;overflow=hidden;rotatable=0;points=[[0,0.5],[1,0.5]];portConstraint=eastwest;" vertex="1" parent="WEQpLsr9RtUh2IpWofqa-29">
          <mxGeometry y="26" width="140" height="104" as="geometry" />
        </mxCell>
        <mxCell id="WEQpLsr9RtUh2IpWofqa-33" value="" style="line;strokeWidth=1;fillColor=none;align=left;verticalAlign=middle;spacingTop=-1;spacingLeft=3;spacingRight=3;rotatable=0;labelPosition=right;points=[];portConstraint=eastwest;" vertex="1" parent="1">
          <mxGeometry x="300" y="151" width="270" height="8" as="geometry" />
        </mxCell>
        <mxCell id="WEQpLsr9RtUh2IpWofqa-36" value="" style="line;strokeWidth=1;fillColor=none;align=left;verticalAlign=middle;spacingTop=-1;spacingLeft=3;spacingRight=3;rotatable=0;labelPosition=right;points=[];portConstraint=eastwest;" vertex="1" parent="1">
          <mxGeometry x="220" y="401" width="270" height="8" as="geometry" />
        </mxCell>
        <mxCell id="WEQpLsr9RtUh2IpWofqa-39" value="" style="endArrow=block;dashed=1;endFill=0;endSize=12;html=1;rounded=0;entryX=0.539;entryY=1.06;entryDx=0;entryDy=0;entryPerimeter=0;" edge="1" parent="1" target="WEQpLsr9RtUh2IpWofqa-28">
          <mxGeometry width="160" relative="1" as="geometry">
            <mxPoint x="500" y="404.58" as="sourcePoint" />
            <mxPoint x="660" y="404.58" as="targetPoint" />
            <Array as="points">
              <mxPoint x="490" y="405" />
            </Array>
          </mxGeometry>
        </mxCell>
      </root>
    </mxGraphModel>
  </diagram>
</mxfile>
